<svg width="321" height="305" viewBox="0 0 321 305" fill="none" xmlns="http://www.w3.org/2000/svg">
<path fill-rule="evenodd" clip-rule="evenodd" d="M317.148 303.96C252.197 313.401 197.354 256.55 147.539 213.826C101.359 174.218 66.864 125.498 43.5556 69.3076C18.4187 8.70932 -16.9853 -59.4546 9.23281 -119.593C35.2676 -179.311 114.578 -187.891 170.361 -221.557C219.818 -251.405 259.82 -312.554 317.148 -305.427C374.664 -298.277 394.661 -224.668 439.61 -188.085C480.746 -154.605 537.213 -144.17 568.183 -101.116C607.412 -46.5805 661.202 21.817 635.133 83.7285C608.618 146.697 510.522 130.324 454.348 169.23C400.33 206.641 382.176 294.508 317.148 303.96Z" fill="#FFF6D9"/>
<g clip-path="url(#clip0_258_54)">
<path d="M207.125 249.064C196.596 262.41 184.601 290.719 173.493 290.243C158.384 289.591 160.367 272.52 158.435 271.053C156.502 269.585 144.828 281.942 135.345 273.505C125.05 264.351 134.499 253.045 133.317 250.058C132.135 247.07 116.648 249.798 113.909 235.512C112.05 225.884 119.778 220.743 127.085 218.156C129.335 217.129 124.483 217.064 119.09 211.508C111.961 204.171 115.306 190.543 131.724 188.952C148.142 187.362 170.294 192.163 176.517 189.478C182.74 186.793 284.644 117.24 319.386 93.9337L364.559 172.177C364.559 172.177 215.666 238.253 207.125 249.064Z" fill="#F2AE72"/>
<path d="M166.481 234.806C158.391 220.793 170.612 208.657 177.415 211.532C184.218 214.406 178.662 219.787 181.96 225.499C185.258 231.211 192.829 229.289 191.293 236.978C189.756 244.667 173.859 247.585 166.481 234.806Z" fill="#FFF6D9"/>
<path d="M176.764 267.309C182.256 269.396 183.851 257.788 180.044 256.418C176.236 255.049 171.761 265.408 176.764 267.309Z" fill="#FFF6D9"/>
<path d="M154.026 255.797C156.963 258.004 164.063 249.577 161.156 246.921C158.647 244.631 149.366 252.3 154.026 255.797Z" fill="#FFF6D9"/>
<path d="M140.738 231.373C141.832 236.476 154.162 234.113 153.318 229.525C152.473 224.936 139.457 225.402 140.738 231.373Z" fill="#FFF6D9"/>
<path d="M142.065 207.415C141.403 212.033 152.829 213.892 153.459 209.357C154.088 204.822 142.854 201.879 142.065 207.415Z" fill="#FFF6D9"/>
<path d="M254.367 137.897C286.502 127.857 283.72 143.674 296.542 136.802C309.365 129.929 313.065 149.475 324.056 145.062C330.038 142.662 339.534 143.854 345.53 139.204L319.412 93.966C305.218 103.451 279.85 120.67 254.367 137.897Z" fill="#D48648"/>
<path d="M281.88 178.522C272.269 187.199 261.689 181.066 246.364 182.312C231.038 183.559 244.664 205.055 237.735 213.685C232.192 220.591 239.016 221.917 238.208 231.031C256.908 221.601 281.265 210.122 303.601 199.817C302.939 186.26 290.013 171.195 281.88 178.522Z" fill="#D48648"/>
</g>
<defs>
<clipPath id="clip0_258_54">
<rect width="112" height="250" fill="white" transform="translate(152 304) rotate(-120)"/>
</clipPath>
</defs>
</svg>
