<svg width="446" height="446" viewBox="0 0 446 446" fill="none" xmlns="http://www.w3.org/2000/svg">
<path fill-rule="evenodd" clip-rule="evenodd" d="M232.485 4.61182C284.338 -8.00878 343.453 5.7756 384.646 39.8128C424.968 73.1303 440.103 128.425 445.438 180.572C450.039 225.552 425.269 265.358 412.144 308.612C398.682 352.98 406.509 411.646 367.688 436.802C328.73 462.046 278.786 427.602 232.485 425.028C189.916 422.662 146.499 440.181 107.742 422.352C64.4197 402.422 26.1074 367.591 9.87302 322.62C-6.60807 276.965 -2.06477 223.824 20.5842 180.915C41.5341 141.225 91.4558 131.452 125.908 102.787C163.963 71.1256 184.448 16.3036 232.485 4.61182Z" fill="#FFEEAD"/>
</svg>
