<svg width="16" height="16" viewBox="0 0 16 16" fill="none" xmlns="http://www.w3.org/2000/svg">
<g clip-path="url(#clip0_12_872)">
<path d="M7.37568 12.4447L0.255608 5.32449C0.0907959 5.15981 -7.16833e-08 4.93997 -6.14371e-08 4.70557C-5.1191e-08 4.47116 0.090796 4.25133 0.255608 4.08664L0.779831 3.56229C1.12142 3.22109 1.6766 3.22109 2.01767 3.56229L7.99668 9.5413L13.9823 3.55566C14.1471 3.39098 14.3668 3.30005 14.6011 3.30005C14.8357 3.30005 15.0554 3.39098 15.2203 3.55566L15.7444 4.08001C15.9092 4.24482 16 4.46453 16 4.69893C16 4.93334 15.9092 5.15317 15.7444 5.31785L8.61782 12.4447C8.45248 12.6098 8.23174 12.7004 7.99707 12.6999C7.7615 12.7004 7.54088 12.6098 7.37568 12.4447Z" fill="#333333"/>
</g>
<defs>
<clipPath id="clip0_12_872">
<rect width="16" height="16" fill="white" transform="matrix(-4.37114e-08 1 1 4.37114e-08 0 0)"/>
</clipPath>
</defs>
</svg>
