<svg width="642" height="611" viewBox="0 0 642 611" fill="none" xmlns="http://www.w3.org/2000/svg">
<path fill-rule="evenodd" clip-rule="evenodd" d="M317.148 609.96C252.197 619.401 197.354 562.55 147.539 519.826C101.359 480.218 66.864 431.498 43.5556 375.308C18.4187 314.709 -16.9853 246.545 9.23283 186.407C35.2676 126.689 114.578 118.109 170.361 84.4432C219.818 54.5949 259.82 -6.55374 317.148 0.573031C374.664 7.7233 394.661 81.3323 439.61 117.915C480.746 151.395 537.213 161.83 568.183 204.884C607.412 259.42 661.202 327.817 635.133 389.729C608.618 452.697 510.522 436.324 454.348 475.23C400.33 512.641 382.176 600.508 317.148 609.96Z" fill="#FFEEAD"/>
</svg>
