<svg width="447" height="511" viewBox="0 0 447 511" fill="none" xmlns="http://www.w3.org/2000/svg">
<path fill-rule="evenodd" clip-rule="evenodd" d="M218.676 0.0744991C266.704 2.12517 297.694 54.0756 333.963 88.7961C366.567 120.008 401.223 148.474 418.986 191.833C438.301 238.979 450.648 292.11 437.614 341.799C424.37 392.286 392.357 439.389 348.562 460.294C307.65 479.823 262.119 457.386 218.676 446.308C185.297 437.795 157.494 418.982 126.213 403.59C83.9644 382.801 20.9092 387.659 3.52753 340.443C-13.5737 293.99 36.1793 250.815 52.7903 204.146C68.0177 161.365 68.8711 112.906 96.7041 78.6657C128.907 39.0493 170.422 -1.98588 218.676 0.0744991Z" fill="#FFEEAD"/>
<g clip-path="url(#clip0_311_15)">
<path d="M166.213 180.072C166.943 175.235 166.381 170.289 164.583 165.742C162.786 161.195 159.817 157.209 155.982 154.194C152.147 151.178 147.583 149.241 142.757 148.58C137.932 147.919 133.018 148.558 128.519 150.433C124.085 144.553 115.927 141.33 109.018 143.833C102.109 146.335 97.8772 155.218 101.277 161.757C97.149 161.988 95.1672 166.949 94.7073 171.074C92.6488 188.999 100.499 206.676 110.666 221.553C125.634 243.405 145.696 261.247 169.103 273.522C175.914 277.114 185.117 279.864 190.592 274.474C202.543 262.781 187.679 237.904 188.194 223.373C188.774 207.561 188.029 180.903 166.213 180.072Z" fill="#6B8262"/>
<path d="M354.833 194.669C357.478 190.456 360.16 186.166 361.452 181.365C362.744 176.563 362.482 171.074 359.564 167.065C365.471 163.171 371.296 158.875 375.44 153.111C379.585 147.347 381.807 139.84 379.869 133.014C377.931 126.189 371.066 120.645 364.069 121.657C367.075 115.536 365.361 107.121 359.574 103.507C353.788 99.8937 344.749 102.957 343.15 109.623C340.45 107.225 337.189 105.551 333.672 104.758C330.155 103.964 326.496 104.076 323.034 105.083C319.571 106.091 316.419 107.961 313.868 110.52C311.318 113.079 309.453 116.244 308.446 119.721C294.069 117.73 279.167 123.94 269.22 134.571C259.272 145.202 254.06 159.772 253.37 174.341C253.195 178.103 253.25 182.069 251.41 185.341C250.069 187.723 247.874 189.466 245.87 191.32C230.267 205.763 225.307 228.5 224.754 249.806C224.272 268.275 226.758 287.591 237.006 302.931C247.255 318.27 266.838 328.396 284.456 323.094C295.695 319.711 304.581 310.697 310.362 300.439C316.144 290.182 319.22 278.654 322.242 267.263C325.576 254.701 327.323 238.856 333.531 227.493C339.636 216.312 348.023 205.581 354.833 194.669Z" fill="#6B8262"/>
<path d="M216.804 131.914C211.067 122.146 203.118 113.264 194.418 104.91C184.055 113.627 177.797 124.913 174.271 136.474C170.746 148.035 169.793 159.981 168.851 171.85C168.419 177.35 167.992 182.938 169.618 188.306C170.494 191.251 172.028 193.957 174.102 196.217C176.176 198.478 178.735 200.234 181.586 201.352C188.024 203.86 196.006 203.139 202.269 200.411C208.532 197.683 213.219 193.179 216.744 188.311C229.21 170.964 227.163 149.514 216.804 131.914Z" fill="#EACEA4"/>
<path d="M309.07 121.233C299.998 123.147 292.197 127.883 285.348 133.141C279.326 137.777 273.763 142.964 270.019 149.025C266.274 155.086 264.434 162.109 266 168.825C267.221 174.017 270.413 178.774 274.212 183.053C279.134 188.684 285.204 193.186 292.011 196.253C296.357 198.173 307.663 202.457 311.221 197.936C313.346 195.236 313.05 189.356 313.493 186.194C314.066 182.091 314.481 177.975 314.736 173.846C315.805 156.119 313.891 138.338 309.075 121.25L309.07 121.233Z" fill="#EACEA4"/>
<path d="M301.411 265.201C301.214 287.784 295.268 310.025 286.563 330.848C282.222 341.238 277.141 351.407 270.271 360.312C263.441 369.158 254.976 376.596 245.339 382.218C240.537 385.012 235.424 387.355 230.01 388.62C211.166 393.02 191.068 383.494 178.476 368.727C165.884 353.959 159.638 334.797 155.608 315.784C150.604 292.134 148.628 267.285 154.864 243.932C161.099 220.579 176.538 198.832 198.727 189.483C206.271 186.304 214.368 184.604 222.493 183.592C234.05 182.146 245.968 182.091 257.126 185.44C268.026 188.713 278.609 195.648 284.133 205.889C284.227 205.384 284.349 204.884 284.499 204.393C297.83 219.292 301.575 245.978 301.411 265.201Z" fill="#EACEA4"/>
<path d="M295.871 157.214C300.645 161.515 305.008 166.377 308.041 172.064C317.759 190.258 311.479 214.15 297.015 228.824C282.551 243.498 261.648 250.125 241.173 251.88C222.559 253.475 202.472 250.972 188.068 239.004C174.846 228.004 168.359 210.404 167.521 193.201C166.7 176.904 171.041 159.409 183.195 148.59C192.272 140.516 204.547 137.101 216.564 135.473C245.788 131.529 273.506 137.046 295.871 157.214Z" fill="#EACEA4"/>
<path d="M30.215 234.764C25.4301 236.414 20.5959 239.059 18.2911 243.564C15.9862 248.068 17.5028 254.773 22.3096 256.373C10.851 253.898 -1.31934 265.085 0.115051 276.767C1.54942 288.449 16.0683 296.325 26.5852 291.122C24.3953 294.527 25.6929 299.372 28.6383 302.122C31.5836 304.872 35.7554 305.972 39.741 306.412C46.956 307.175 54.2471 306.144 60.972 303.409C60.4245 310.586 66.4467 316.928 73.2846 319.139C80.1225 321.35 87.4915 320.409 94.5922 319.447C93.0812 326.047 98.0632 332.707 104.222 335.435C110.381 338.163 117.362 337.894 124.096 337.586C123.515 351.743 132.811 364.965 144.899 372.285C156.988 379.606 171.408 381.899 185.5 382.532C188.298 382.658 191.309 382.669 193.635 381.102C195.415 379.903 196.526 377.945 197.429 375.992C204.24 361.335 202.483 343.817 196.334 328.857C190.186 313.897 180.124 300.967 170.127 288.29C154.798 268.82 137.766 248.349 113.962 241.644C100.456 237.838 86.1392 238.652 72.436 235.688C58.3167 232.646 44.3453 229.814 30.215 234.764Z" fill="#D4C962"/>
<path d="M205.083 289.395C202.663 286.095 199.904 283.032 197.966 279.446C194.955 273.946 193.98 267.61 192.059 261.648C189.56 254.043 185.524 247.039 180.203 241.076C174.882 235.113 168.391 230.32 161.137 226.998C158.154 225.656 154.94 224.49 152.745 222.048C151.102 220.238 150.204 217.901 149.186 215.684C140.925 197.711 122.36 184.973 102.695 183.785C100.286 183.636 97.8333 183.647 95.5065 182.993C93.2674 182.366 91.2471 181.156 89.1668 180.122C72.5126 171.872 50.7069 175.722 37.896 189.235C33.2042 194.185 29.5634 200.736 30.1492 207.545C30.735 214.353 36.812 220.86 43.5623 220.007C41.9199 229.759 47.7286 239.576 55.6834 245.395C63.6382 251.214 73.4489 253.783 83.057 255.922C85.017 256.362 87.185 256.918 88.2799 258.612C88.9314 259.607 89.0846 260.812 89.3146 262.005C91.5373 273.231 102.109 281.255 113.157 284.005C117.449 285.105 121.917 285.562 126.012 287.267C130.107 288.972 133.895 292.266 134.618 296.655C134.974 298.811 134.558 301.055 134.892 303.206C135.91 309.883 143.153 313.336 149.339 315.987C155.526 318.638 162.55 323.082 162.287 329.831C162.161 333.092 160.305 336.684 162.145 339.373C163.371 341.166 165.72 341.672 167.756 342.415C170.25 343.342 172.514 344.798 174.395 346.686C176.277 348.573 177.73 350.845 178.657 353.349C180.162 357.485 180.146 362.066 181.744 366.169C183.343 370.272 186.507 373.649 189.781 376.619C198.163 384.281 210.946 390.457 220.27 380.431C226.506 373.715 223.182 367.231 221.529 359.344C216.356 334.863 221.036 311.12 205.083 289.395Z" fill="#D4C962"/>
<path d="M288.217 350.764C296.527 339.148 313.866 339.065 325.231 330.441C336.728 321.707 340.654 305.345 352.446 296.991C362.542 289.841 377.323 289.384 384.528 279.303C389.455 272.406 389.22 262.918 393.6 255.653C397.224 249.647 403.525 245.912 409.279 241.903C418.434 235.545 426.717 228.006 433.915 219.479C442.078 209.8 449.091 197.392 446.442 184.984C444.066 173.846 433.85 165.376 422.714 163.286C411.579 161.196 399.89 164.777 390.506 171.162C381.123 177.548 373.787 186.562 367.48 196.017C366.215 197.914 364.912 199.911 362.925 201.016C360.105 202.589 356.645 202.012 353.426 201.775C338.267 200.675 322.806 208.898 315.24 222.125C310.86 229.825 308.939 238.916 303.294 245.709C296.144 254.322 283.941 258.023 278.176 267.632C271.508 278.736 275.324 294.824 266.301 304.097C263.701 306.775 260.318 308.497 257.208 310.57C246.176 317.874 238.594 329.27 231.373 340.391C227.825 345.825 224.217 351.391 222.646 357.694C221.075 363.997 221.88 371.29 226.325 376.009C229.648 379.54 234.493 381.179 239.24 382.059C264.467 386.926 275.603 368.413 288.217 350.764Z" fill="#D4C962"/>
<path d="M95.7528 217.912C90.0372 214.221 83.5004 210.602 76.8267 211.862C79.3943 215.877 83.9438 218.016 88.1538 220.255C107.146 230.391 122.48 246.105 137.377 261.708C148.874 273.764 160.371 285.908 170.121 299.499C179.872 313.089 187.799 328.142 191.473 344.439C193.115 351.693 193.816 359.767 197.67 366.29C202.351 374.216 204.743 364.712 203.692 359.811C200.632 345.792 194.161 331.761 187.734 319.012C174.435 292.684 156.309 268.902 134.935 248.673C122.846 237.228 109.73 226.93 95.7528 217.912Z" fill="#6B8262"/>
<path d="M404.264 206.934C337.954 251.085 284.049 311.614 247.72 382.713C244.539 388.961 241.37 395.457 236.119 400.093C235.134 400.962 233.902 401.809 232.61 401.545C229.681 400.951 230.551 396.502 232.128 393.955C241.837 378.276 251.54 362.596 261.237 346.914C272.597 328.566 284.029 310.113 298.323 293.966C305.626 285.716 313.652 278.126 321.618 270.547L344.256 249.097C354.264 239.604 364.277 230.105 374.75 221.14C381.9 215.024 389.255 209.158 396.813 203.54C398.91 201.989 403.158 197.771 406.235 199.25C410.451 201.247 406.613 205.377 404.264 206.934Z" fill="#6B8262"/>
<path d="M261.149 456.363C258.631 470.531 256.6 485.755 247.167 496.59C239.672 505.198 228.318 509.752 216.979 510.758C205.641 511.765 194.254 509.526 183.321 506.358C180.036 505.396 176.636 504.29 174.014 502.035C169.957 498.521 168.539 492.916 167.296 487.68C157.745 446.863 148.193 406.046 138.642 365.229C185.949 366.329 233.278 367.429 280.585 366.439C280.894 366.393 281.209 366.409 281.511 366.487C281.814 366.564 282.098 366.701 282.348 366.89C282.824 367.368 282.786 368.138 282.714 368.809C281.165 383.192 275.745 396.859 271.853 410.774C267.659 425.8 263.881 440.98 261.149 456.363Z" fill="#D48648"/>
<path d="M280.601 366.714C280.91 366.668 281.225 366.684 281.528 366.762C281.83 366.839 282.115 366.976 282.364 367.165C282.835 367.643 282.802 368.413 282.731 369.084C282.379 372.239 281.869 375.375 281.204 378.478C278.839 379.534 276.085 379.732 273.457 379.881C258.768 380.678 243.965 381.107 229.572 384.171C215.179 387.234 200.993 393.163 190.526 403.536C186.568 407.452 183.146 412.023 181.175 417.242C179.494 421.68 178.903 426.443 178.345 431.162C176.489 446.815 174.835 462.573 175.607 478.319C175.979 485.97 177.162 494.137 182.303 499.769C185.144 502.893 188.944 504.95 192.754 506.76C195.71 508.16 198.716 509.444 201.771 510.61C195.527 509.753 189.358 508.41 183.321 506.595C180.036 505.632 176.636 504.527 174.014 502.266C169.957 498.757 168.539 493.153 167.297 487.917L138.637 365.465C185.965 366.593 233.294 367.687 280.601 366.714Z" fill="#F2AE72"/>
<path d="M282.2 372.621C259.277 377.444 235.665 377.774 212.271 378.121L164.866 378.759C157.661 378.858 150.391 378.951 143.328 377.51C140.186 376.872 137.005 375.86 134.569 373.787C132.132 371.713 130.6 368.287 131.492 365.19C133.036 359.795 140.049 358.684 145.633 358.706C169.081 358.783 192.464 360.757 215.863 362.006C237.762 363.194 261.079 365.135 282.523 360.29C285.972 359.514 289.761 359.822 290.888 364.14C292.268 369.447 286.257 371.768 282.2 372.621Z" fill="#D48648"/>
<path d="M151.606 402.54C154.677 404.647 157.814 407.21 161.537 407.248C167.165 407.298 171.282 401.616 176.79 400.456C185.391 398.641 192.699 408.211 201.486 408.244C210.098 408.277 216.618 399.24 225.219 398.855C235.961 398.377 244.556 411.505 255.045 409.146C260.164 407.996 263.805 403.382 268.732 401.512C270.858 400.749 273.136 400.511 275.373 400.819C274.327 404.174 273.282 407.523 272.318 410.884C271.484 410.532 270.605 410.3 269.707 410.196C262.338 409.371 256.567 417.445 249.193 417.896C240.138 418.446 233.864 407.683 224.847 406.803C215.206 405.862 207.257 416.51 197.616 415.548C189.825 414.772 183.025 406.478 175.613 409.008C170.915 410.614 167.587 416.351 162.67 415.68C158.039 415.058 155.717 408.986 151.119 408.156C150.321 407.966 149.491 407.966 148.693 408.156L146.788 400.016C148.523 400.583 150.151 401.436 151.606 402.54Z" fill="#F2AE72"/>
<path d="M151.639 402.474C154.716 404.581 157.853 407.144 161.57 407.182C167.198 407.232 171.315 401.551 176.823 400.39C181.438 399.417 185.675 401.721 189.962 404.07C188.098 405.952 186.403 407.997 184.898 410.18C181.838 408.744 178.788 407.859 175.624 408.937C170.937 410.543 167.598 416.263 162.671 415.614C158.044 414.987 155.718 408.92 151.119 408.084C150.303 407.945 149.468 407.965 148.661 408.145L146.755 400.005C148.496 400.581 150.142 401.414 151.639 402.474Z" fill="#D48648"/>
<path d="M289.804 413.134C291.994 420.674 292.043 428.737 290.713 436.481C288.709 448.141 283.278 459.581 273.889 466.731C263.044 474.981 248.706 476.444 235.304 478.633C227.581 479.887 219.916 481.476 212.31 483.401C209.49 484.116 206.441 484.864 203.742 483.775C200.725 482.56 198.962 479.304 198.404 476.075C196.964 467.699 202.373 459.3 209.583 454.845C216.793 450.39 225.46 449.098 233.88 448.3C242.3 447.503 250.917 447.046 258.812 443.972C260.624 443.262 262.431 442.393 263.778 440.98C265.316 439.368 266.115 437.201 266.745 435.062C269.329 426.262 269.635 416.951 271.732 408.019C272.505 404.524 273.593 401.107 274.984 397.811C276.813 393.664 278.001 394.511 280.891 397.464C285.095 401.875 288.155 407.256 289.804 413.134Z" fill="#EACEA4"/>
<path d="M190.488 158.248C190.237 159.33 190.105 160.437 190.094 161.548C190.067 164.821 191.114 168.012 193.075 170.627C195.036 173.241 197.8 175.133 200.939 176.01C204.078 176.887 207.418 176.7 210.44 175.477C213.463 174.255 216 172.066 217.659 169.248C217.167 171.334 216.233 173.288 214.92 174.977C213.607 176.666 211.947 178.05 210.052 179.035C208.158 180.021 206.074 180.583 203.943 180.684C201.812 180.785 199.684 180.423 197.706 179.622C195.727 178.821 193.944 177.6 192.478 176.043C191.013 174.486 189.899 172.629 189.214 170.599C188.528 168.57 188.287 166.416 188.507 164.284C188.727 162.152 189.403 160.093 190.488 158.248Z" fill="#E9F1F4"/>
<path d="M191.764 175.969C186.46 169.711 187.211 160.318 193.441 154.989C199.671 149.661 209.021 150.415 214.325 156.673C219.629 162.932 218.878 172.325 212.648 177.654C206.418 182.982 197.068 182.228 191.764 175.969Z" fill="white"/>
<path d="M202.937 181.689C205.964 181.712 208.929 180.832 211.458 179.162C213.988 177.491 215.967 175.105 217.145 172.304C218.324 169.503 218.65 166.414 218.081 163.427C217.512 160.441 216.074 157.691 213.949 155.525C211.824 153.36 209.107 151.876 206.143 151.262C203.179 150.647 200.099 150.93 197.295 152.074C194.49 153.218 192.087 155.172 190.388 157.689C188.689 160.205 187.771 163.171 187.75 166.212C187.73 170.285 189.316 174.2 192.162 177.101C195.009 180.002 198.883 181.651 202.937 181.689ZM203.15 151.929C205.984 151.95 208.747 152.814 211.091 154.412C213.436 156.01 215.256 158.271 216.321 160.908C217.387 163.545 217.651 166.441 217.078 169.228C216.506 172.016 215.124 174.571 213.107 176.569C211.09 178.568 208.528 179.921 205.746 180.457C202.964 180.994 200.085 180.689 197.475 179.583C194.865 178.476 192.64 176.617 191.081 174.24C189.523 171.863 188.701 169.075 188.719 166.229C188.747 162.41 190.282 158.759 192.988 156.078C195.694 153.396 199.35 151.904 203.15 151.929Z" fill="#E0BA99"/>
<path d="M192.436 166.839C192.423 168.766 192.979 170.653 194.034 172.262C195.089 173.871 196.594 175.129 198.361 175.879C200.128 176.628 202.076 176.834 203.959 176.471C205.842 176.108 207.576 175.192 208.941 173.839C210.306 172.486 211.241 170.757 211.628 168.87C212.015 166.983 211.836 165.023 211.115 163.239C210.393 161.454 209.16 159.924 207.573 158.843C205.986 157.762 204.115 157.178 202.198 157.165C200.925 157.156 199.662 157.399 198.482 157.881C197.303 158.362 196.229 159.073 195.323 159.971C194.416 160.869 193.695 161.938 193.2 163.117C192.704 164.295 192.445 165.56 192.436 166.839Z" fill="#593E39"/>
<path d="M201.864 175.579C200.71 172.711 199.953 169.699 199.614 166.625C199.275 163.534 199.846 160.411 201.256 157.643C201.207 157.643 202.192 158.628 202.258 158.71C202.691 159.299 202.806 160.36 202.975 161.048C203.894 165.107 203.776 169.334 202.63 173.335C202.526 173.714 201.744 175.249 201.864 175.579Z" fill="#30211F"/>
<path d="M210.18 167.499C210.137 167.822 210.033 168.134 209.873 168.418C209.794 168.561 209.683 168.686 209.55 168.781C209.416 168.876 209.263 168.94 209.102 168.968C208.861 168.966 208.626 168.89 208.43 168.749C208.234 168.608 208.086 168.41 208.007 168.181C207.858 167.719 207.78 167.237 207.777 166.751C207.664 165.457 207.258 164.206 206.589 163.094C205.466 161.224 208.231 161.653 208.976 162.687C209.995 164.068 210.428 165.798 210.18 167.499Z" fill="white"/>
<path d="M205.373 161.185C205.182 161.204 204.989 161.18 204.807 161.117C204.626 161.053 204.46 160.951 204.322 160.817C204.043 160.551 203.815 160.236 203.649 159.887C203.556 159.711 203.474 159.469 203.616 159.337C203.668 159.285 203.735 159.251 203.807 159.238C204.184 159.151 204.575 159.161 204.947 159.267C205.318 159.373 205.657 159.571 205.932 159.843C206.022 159.96 206.079 160.099 206.099 160.245C206.118 160.392 206.098 160.541 206.042 160.678C205.985 160.814 205.893 160.933 205.776 161.022C205.658 161.111 205.519 161.168 205.373 161.185Z" fill="white"/>
<path d="M264.55 169.177C263.742 172.639 264.195 176.276 265.825 179.432C267.456 182.588 270.157 185.054 273.44 186.383C276.722 187.712 280.37 187.816 283.723 186.678C287.076 185.54 289.913 183.234 291.721 180.177C291.229 182.262 290.295 184.216 288.982 185.905C287.669 187.595 286.009 188.979 284.114 189.964C282.22 190.949 280.136 191.511 278.005 191.613C275.874 191.714 273.746 191.351 271.768 190.55C269.789 189.749 268.006 188.529 266.54 186.971C265.075 185.414 263.961 183.557 263.276 181.528C262.59 179.498 262.349 177.344 262.569 175.212C262.789 173.081 263.465 171.022 264.55 169.177Z" fill="#E9F1F4"/>
<path d="M262.311 177.141C262.29 180.084 263.139 182.968 264.75 185.427C266.361 187.886 268.662 189.81 271.361 190.955C274.06 192.1 277.037 192.416 279.915 191.861C282.793 191.307 285.442 189.908 287.528 187.84C289.615 185.773 291.044 183.131 291.635 180.247C292.226 177.364 291.953 174.37 290.85 171.642C289.747 168.915 287.863 166.578 285.438 164.926C283.013 163.274 280.154 162.382 277.224 162.362C275.279 162.348 273.35 162.72 271.547 163.455C269.745 164.19 268.104 165.275 266.72 166.648C265.335 168.02 264.233 169.653 263.476 171.453C262.72 173.254 262.324 175.186 262.311 177.141Z" fill="white"/>
<path d="M277.005 192.618C280.031 192.639 282.996 191.759 285.524 190.087C288.053 188.416 290.031 186.029 291.209 183.228C292.387 180.427 292.712 177.339 292.142 174.352C291.572 171.366 290.134 168.617 288.009 166.452C285.884 164.287 283.167 162.803 280.203 162.19C277.239 161.576 274.16 161.859 271.356 163.003C268.551 164.147 266.148 166.101 264.449 168.618C262.751 171.134 261.833 174.1 261.812 177.141C261.792 181.215 263.379 185.131 266.226 188.031C269.074 190.932 272.949 192.581 277.005 192.618ZM277.213 162.852C280.046 162.872 282.809 163.736 285.153 165.335C287.498 166.933 289.318 169.194 290.384 171.831C291.449 174.468 291.713 177.364 291.14 180.151C290.568 182.939 289.186 185.493 287.169 187.492C285.152 189.491 282.591 190.844 279.808 191.38C277.026 191.917 274.147 191.612 271.537 190.505C268.927 189.399 266.702 187.539 265.143 185.162C263.585 182.786 262.763 179.998 262.781 177.152C262.812 173.334 264.348 169.685 267.054 167.004C269.759 164.323 273.413 162.83 277.213 162.852Z" fill="#E0BA99"/>
<path d="M266.504 177.762C266.49 179.689 267.045 181.576 268.099 183.186C269.153 184.796 270.658 186.055 272.425 186.805C274.191 187.555 276.139 187.762 278.023 187.4C279.907 187.038 281.641 186.122 283.007 184.769C284.372 183.417 285.308 181.687 285.695 179.8C286.083 177.913 285.904 175.953 285.182 174.168C284.461 172.383 283.228 170.853 281.641 169.772C280.054 168.69 278.183 168.106 276.265 168.093C274.992 168.084 273.73 168.326 272.55 168.807C271.371 169.288 270.297 169.998 269.39 170.896C268.484 171.794 267.762 172.862 267.267 174.04C266.772 175.219 266.512 176.483 266.504 177.762Z" fill="#593E39"/>
<path d="M275.931 186.502C274.777 183.634 274.018 180.622 273.676 177.548C273.34 174.457 273.911 171.335 275.318 168.566C275.274 168.566 276.26 169.551 276.32 169.666C276.758 170.255 276.867 171.316 277.037 172.004C277.404 173.607 277.607 175.243 277.645 176.888C277.683 178.533 277.558 180.178 277.272 181.799C277.123 182.639 276.929 183.471 276.692 184.291C276.588 184.648 275.805 186.177 275.931 186.502Z" fill="#30211F"/>
<path d="M284.242 178.428C284.202 178.751 284.098 179.064 283.936 179.346C283.856 179.49 283.745 179.614 283.612 179.709C283.478 179.804 283.325 179.868 283.164 179.896C282.922 179.896 282.687 179.82 282.491 179.679C282.295 179.538 282.147 179.339 282.069 179.11C281.918 178.65 281.839 178.169 281.833 177.685C281.721 176.392 281.316 175.141 280.651 174.028C279.556 172.158 282.293 172.581 283.032 173.621C283.54 174.302 283.908 175.078 284.116 175.903C284.323 176.728 284.366 177.586 284.242 178.428Z" fill="white"/>
<path d="M279.424 172.108C279.233 172.126 279.041 172.103 278.86 172.04C278.679 171.978 278.513 171.877 278.373 171.745C278.094 171.481 277.867 171.165 277.705 170.816C277.607 170.634 277.53 170.392 277.667 170.266C277.724 170.22 277.789 170.187 277.859 170.167C278.236 170.081 278.628 170.091 279 170.197C279.372 170.303 279.712 170.5 279.988 170.772C280.077 170.889 280.133 171.028 280.152 171.174C280.17 171.32 280.149 171.469 280.092 171.604C280.035 171.74 279.943 171.858 279.826 171.946C279.708 172.035 279.57 172.091 279.424 172.108Z" fill="white"/>
<path d="M240.477 189.494C240.874 189.594 241.244 189.782 241.559 190.044C241.875 190.307 242.127 190.637 242.298 191.011C242.47 191.385 242.555 191.792 242.549 192.203C242.543 192.615 242.445 193.019 242.262 193.388C241.528 195.434 239.793 196.946 237.975 198.128C236.158 199.311 234.192 200.273 232.566 201.709C230.665 199.892 228.943 197.893 227.426 195.742C226.743 194.859 226.22 193.863 225.882 192.799C225.597 191.699 225.537 190.198 226.199 189.301C226.927 188.317 230.032 186.551 232.566 188.284C233.426 188.834 234.242 189.384 234.691 190.269C235.507 189.651 236.469 189.255 237.483 189.119C238.496 188.984 239.528 189.112 240.477 189.494Z" fill="#593E39"/>
<path d="M218.184 212.89C218.237 212.78 218.33 212.695 218.444 212.651C218.558 212.607 218.684 212.608 218.797 212.654C221.37 213.583 224.359 213.754 226.878 212.577C229.615 211.29 231.175 208.43 231.805 205.564C231.856 205.348 231.9 205.134 231.936 204.921C231.936 204.805 231.936 204.695 231.936 204.58C231.858 202.362 232.003 200.141 232.369 197.953C232.387 197.831 232.452 197.721 232.551 197.648C232.65 197.575 232.773 197.544 232.894 197.562C233.016 197.58 233.125 197.646 233.198 197.745C233.27 197.844 233.301 197.968 233.283 198.09C233.228 198.426 233.179 198.756 233.135 199.091C233.224 199.136 233.297 199.206 233.344 199.294C233.391 199.382 233.41 199.482 233.398 199.58C233.336 201.382 233.153 203.177 232.85 204.954C232.928 206.432 233.111 207.902 233.398 209.354C233.536 210.198 233.806 211.014 234.197 211.774C234.62 212.482 235.143 213.123 235.752 213.677C238.372 216.171 241.767 217.684 245.366 217.961C245.428 217.971 245.487 217.992 245.541 218.025C245.594 218.058 245.64 218.102 245.677 218.153C245.713 218.205 245.739 218.263 245.752 218.324C245.765 218.386 245.766 218.45 245.754 218.511C245.745 218.574 245.723 218.634 245.691 218.688C245.658 218.742 245.615 218.789 245.564 218.825C245.513 218.862 245.455 218.889 245.394 218.903C245.332 218.917 245.269 218.918 245.207 218.907C241.646 218.619 238.272 217.188 235.582 214.826C234.898 214.241 234.283 213.578 233.748 212.852C233.24 212.107 232.869 211.276 232.653 210.399C232.425 209.494 232.255 208.576 232.144 207.649C231.862 208.47 231.495 209.259 231.049 210.003C230.219 211.366 229.046 212.487 227.65 213.253C226.341 213.935 224.896 214.311 223.423 214.353C221.717 214.405 220.017 214.129 218.414 213.539C218.355 213.514 218.302 213.476 218.258 213.429C218.214 213.381 218.181 213.326 218.159 213.265C218.138 213.204 218.129 213.139 218.133 213.075C218.137 213.011 218.154 212.948 218.184 212.89Z" fill="#593E39"/>
<path d="M192.574 117.647C187.329 126.018 187.099 136.468 184.602 146.044C184.767 145.406 188.336 144.295 188.982 144.031C190.635 143.36 192.314 142.766 194.019 142.249C197.249 141.275 201.081 141.319 204.169 140.17C208.516 138.547 201.087 128.13 199.587 125.826C197.658 122.771 195.296 120.015 192.574 117.647Z" fill="#FFE0B6"/>
<path d="M305.654 135.88C298.361 138.525 293.013 144.768 288.381 151.016C294.951 157.775 300.809 165.024 306.896 172.185C306.617 166.493 307.822 160.866 307.849 155.135C307.86 153.507 306.141 135.704 305.654 135.88Z" fill="#FFE0B6"/>
<path d="M276.145 240.528C259.513 248.552 239.864 249.405 222.142 244.262C204.421 239.12 188.604 228.23 176.264 214.452C179.878 222.614 184.553 230.259 189.36 237.778C194.67 246.077 200.38 254.492 208.598 259.893C218.381 266.317 230.831 267.736 242.344 265.707C253.858 263.677 264.577 258.485 274.645 252.507C280.536 249.009 286.432 245.038 290.708 239.582C291.639 238.388 295.597 233.614 294.387 232.058C293.237 230.589 289.131 232.96 288.053 233.587C284.051 235.902 280.311 238.52 276.145 240.528Z" fill="#DBC09C"/>
<path d="M267.692 149.597C266.821 151.01 265.502 152.105 264.473 153.397C263.281 154.877 262.436 156.606 261.998 158.457C261.079 162.39 261.746 167.257 258.571 169.738C258.221 170.013 257.706 170.238 257.345 169.974C257.226 169.849 257.135 169.7 257.078 169.537C257.022 169.374 257.001 169.2 257.016 169.028C256.874 165.305 256.759 161.433 258.259 158.028C259.272 155.735 260.996 153.738 261.544 151.296C262.228 148.222 260.947 144.922 261.801 141.891C262.146 140.681 262.819 139.554 263.121 138.349C265.256 138.976 267.363 139.684 269.444 140.472C269.132 143.558 269.258 147.067 267.692 149.597Z" fill="#FFE0B6"/>
<path d="M232.008 149.74C230.573 145.384 232.654 140.758 234.17 136.43C234.392 135.798 234.519 135.136 234.548 134.466C236.371 134.466 238.189 134.499 239.99 134.582C239.38 135.46 238.982 136.47 238.829 137.53C238.506 139.691 238.911 141.902 238.703 144.075C238.44 146.775 237.236 149.382 237.449 152.088C237.636 154.53 238.971 156.807 238.906 159.238C238.807 162.621 236.043 165.651 236.524 169.001C236.71 170.277 237.209 171.932 236.103 172.581C234.131 169.912 233.25 166.587 233.639 163.286C233.946 160.778 234.986 158.292 234.542 155.806C234.154 153.65 232.692 151.835 232.008 149.74Z" fill="#FFE0B6"/>
<path d="M229.38 134.598C228.51 136.205 228.005 137.986 227.902 139.812C227.661 142.535 227.792 145.367 226.747 147.886C226.341 148.865 225.493 149.899 224.458 149.707C223.522 149.531 223.046 148.409 223.155 147.457C223.265 146.506 223.768 145.664 224.097 144.762C225.224 141.666 224.151 138.283 223.943 134.967C225.761 134.802 227.573 134.679 229.38 134.598Z" fill="#FFE0B6"/>
<path d="M241.972 168.17C242.163 166.806 243.559 166.025 244.539 165.063C246.97 162.681 246.959 158.749 246.182 155.427C245.634 152.996 244.742 150.372 245.755 148.095C246.767 145.818 249.302 144.531 249.724 142.161C249.992 140.659 249.313 139.169 248.629 137.81C248.17 136.865 247.62 135.968 246.986 135.132C249.757 135.444 252.494 135.869 255.198 136.408C254.607 138.998 256.036 142.078 255.489 144.828C254.892 147.776 252.171 149.778 250.802 152.451C248.547 156.851 250.255 162.39 248.667 167.087C248.12 168.687 247.025 170.271 245.41 170.711C243.795 171.151 241.742 169.864 241.972 168.17Z" fill="#FFE0B6"/>
<path d="M209.583 454.873C216.47 450.61 224.699 449.246 232.774 448.432C235.168 449.79 237.25 451.641 238.882 453.864C240.515 456.086 241.661 458.631 242.245 461.33C243.565 467.297 241.627 473.809 237.526 478.292L235.303 478.649C227.58 479.903 219.916 481.493 212.31 483.418C209.49 484.133 206.441 484.881 203.742 483.792C200.725 482.576 198.962 479.32 198.409 476.092C196.964 467.726 202.373 459.328 209.583 454.873Z" fill="#FFE0B6"/>
</g>
<defs>
<clipPath id="clip0_311_15">
<rect width="447" height="409" fill="white" transform="matrix(-1 0 0 1 447 102)"/>
</clipPath>
</defs>
</svg>
